<svg width="114" height="35" viewBox="0 0 114 35" fill="none" xmlns="http://www.w3.org/2000/svg">
<path fill-rule="evenodd" clip-rule="evenodd" d="M45.3779 15.078V20.2096C45.3779 21.3497 46.2704 21.5442 47.8788 21.4804C48.1349 21.4703 48.3488 21.6752 48.3488 21.9328V24.9864C48.3488 25.2216 48.1691 25.4182 47.936 25.4381C42.6149 25.8929 41.0512 24.168 41.0512 20.2096V15.078H39.1944C38.9455 15.078 38.7437 14.8752 38.7437 14.625V11.3561C38.7437 11.1059 38.9455 10.903 39.1944 10.903H41.0512V8.48583C41.0512 8.28577 41.1818 8.10941 41.3724 8.05192L45.3779 6.84412V10.903H48.9798L47.177 15.078H45.3779Z" fill="#06052F"/>
<path fill-rule="evenodd" clip-rule="evenodd" d="M49.9395 18.233C49.9395 13.9478 53.2185 10.6404 57.6292 10.6404C60.2672 10.6404 62.6248 11.9288 63.9377 13.9135C64.0811 14.1302 64.0135 14.4216 63.7873 14.5517L60.7761 16.2831C60.5711 16.401 60.3096 16.3421 60.1754 16.1486C59.6274 15.359 58.6881 14.8968 57.5712 14.8968C55.685 14.8968 54.2922 16.2486 54.2922 18.233C54.2922 20.2174 55.685 21.5692 57.5712 21.5692C58.6854 21.5692 59.6449 21.1093 60.1798 20.3232C60.3129 20.1276 60.5746 20.0657 60.7812 20.1829L63.7864 21.888C64.0131 22.0167 64.0822 22.3075 63.9405 22.5251C62.6312 24.5357 60.2961 25.8256 57.6292 25.8256C53.2185 25.8256 49.9395 22.5182 49.9395 18.233Z" fill="#06052F"/>
<path fill-rule="evenodd" clip-rule="evenodd" d="M80.008 16.6295V25.0573C80.008 25.3069 79.8029 25.5092 79.5498 25.5092H76.0678C75.8148 25.5092 75.6097 25.3069 75.6097 25.0573V17.2659C75.6097 15.4726 74.4661 14.6338 73.0586 14.6338C71.4459 14.6338 70.3316 15.5594 70.3316 17.613V25.0573C70.3316 25.3069 70.1265 25.5092 69.8735 25.5092H66.3916C66.1385 25.5092 65.9333 25.3069 65.9333 25.0573V6.53374C65.9333 6.31967 66.0857 6.13497 66.2982 6.0913L70.3316 5.26233V12.4066C71.1235 11.3365 72.5895 10.6423 74.5248 10.6423C77.4862 10.6423 80.008 12.7248 80.008 16.6295Z" fill="#06052F"/>
<path fill-rule="evenodd" clip-rule="evenodd" d="M92.9735 16.7375C92.5109 15.0694 91.2099 14.4655 89.9088 14.4655C88.2608 14.4655 87.1622 15.2708 86.7574 16.7375H92.9735ZM90.3136 21.9718C91.3539 21.9718 92.2607 21.6174 92.8579 21.1029C93.0053 20.9759 93.2154 20.9512 93.3845 21.0479L96.1083 22.6058C96.3523 22.7454 96.4098 23.0706 96.2293 23.2854C94.8191 24.9637 92.7973 25.8256 90.2558 25.8256C85.3118 25.8256 82.2471 22.5182 82.2471 18.233C82.2471 13.9478 85.3696 10.6404 89.9377 10.6404C94.1588 10.6404 97.2814 13.8903 97.2814 18.233C97.2814 18.837 97.2235 19.4122 97.1079 19.9586H86.8441C87.3935 21.4542 88.7234 21.9718 90.3136 21.9718Z" fill="#06052F"/>
<path fill-rule="evenodd" clip-rule="evenodd" d="M108.682 25.3223L104.184 19.117V25.0573C104.184 25.3069 103.982 25.5092 103.732 25.5092H100.293C100.043 25.5092 99.8405 25.3069 99.8405 25.0573V6.53374C99.8405 6.31967 99.9908 6.13497 100.201 6.0913L104.184 5.26233V17.3816L108.393 11.2437C108.477 11.1207 108.617 11.0472 108.766 11.0472H113.595L108.325 18.2782L113.199 24.7866C113.422 25.0846 113.209 25.5092 112.837 25.5092H109.048C108.903 25.5092 108.767 25.4397 108.682 25.3223Z" fill="#06052F"/>
<mask id="mask0" mask-type="alpha" maskUnits="userSpaceOnUse" x="0" y="0" width="31" height="34">
<path d="M0.997925 0.252686H30.3756V33.3768H0.997925V0.252686Z" fill="white"/>
</mask>
<g mask="url(#mask0)">
<path fill-rule="evenodd" clip-rule="evenodd" d="M14.2993 20.7141V13.4488L20.5144 16.6003L14.2993 20.7141ZM29.8459 7.86346L16.5972 0.383491C16.2682 0.200737 15.8647 0.209957 15.544 0.408175L10.7898 3.24547L27.1599 12.201L25.6028 13.2311L19.5191 9.96138L9.81203 4.44898C9.48924 4.26726 9.09293 4.27029 8.77325 4.45826L1.50595 8.725C1.1914 8.90987 0.997925 9.24566 0.997925 9.60916V24.0833C0.997925 24.4582 1.20277 24.8032 1.53382 24.9839L6.71231 28.3748V9.60097L8.58502 10.5508V29.606L14.2993 33.3768V27.3355L29.8759 17.2329C30.1935 17.0429 30.3839 16.6979 30.3746 16.3302L30.3756 8.73428C30.3663 8.37175 30.1656 8.04009 29.8459 7.86346Z" fill="url(#paint0_linear)"/>
</g>
<mask id="mask1" mask-type="alpha" maskUnits="userSpaceOnUse" x="16" y="19" width="15" height="16">
<path d="M16.0657 19.2065H30.3757V34.3673H16.0657V19.2065Z" fill="white"/>
</mask>
<g mask="url(#mask1)">
<path fill-rule="evenodd" clip-rule="evenodd" d="M30.3757 19.2065V24.2302C30.3757 24.5715 30.2064 24.8903 29.9245 25.0821L16.0657 34.3673V28.4886L30.3757 19.2065Z" fill="url(#paint1_linear)"/>
</g>
<defs>
<linearGradient id="paint0_linear" x1="15.6868" y1="0.252686" x2="15.6868" y2="33.3768" gradientUnits="userSpaceOnUse">
<stop stop-color="#20E272"/>
<stop offset="1" stop-color="#00CE57"/>
</linearGradient>
<linearGradient id="paint1_linear" x1="23.2207" y1="19.2065" x2="23.2207" y2="34.3673" gradientUnits="userSpaceOnUse">
<stop stop-color="#20E272"/>
<stop offset="1" stop-color="#00CE57"/>
</linearGradient>
</defs>
</svg>
